# Blender v2.78 (sub 0) OBJ File: 'triangles.blend'
# www.blender.org
mtllib door.mtl
o Wall+door_Cube.004
v -1.500000 0.000000 1.875000
v -1.500000 -0.000000 2.125000
v -1.500000 4.000000 1.875000
v -1.500000 4.000000 2.125000
v 1.500000 0.000000 1.875000
v 1.500000 -0.000000 2.125000
v 1.500000 4.000000 1.875000
v 1.500000 4.000000 2.125000
v -0.695673 -0.000000 2.125000
v -0.695673 0.000000 1.875000
v -0.695673 3.549274 2.125000
v -0.695673 3.549274 1.875000
v 0.695673 -0.000000 2.125000
v 0.695673 0.000000 1.875000
v 0.695673 3.549274 2.125000
v 0.695673 3.549274 1.875000
vn -1.0000 0.0000 0.0000
vn 0.0000 1.0000 0.0000
vn 1.0000 0.0000 0.0000
vn 0.0000 -1.0000 -0.0000
vn 0.0000 0.0000 -1.0000
vn 0.0000 -0.0000 1.0000
usemtl None
s off
f 1//1 2//1 4//1 3//1
f 3//2 4//2 8//2 7//2
f 7//3 8//3 6//3 5//3
f 5//4 6//4 13//4 14//4
f 3//5 7//5 5//5 14//5 16//5 12//5 10//5 1//5
f 8//6 4//6 2//6 9//6 11//6 15//6 13//6 6//6
f 15//1 16//1 14//1 13//1
f 16//4 15//4 11//4 12//4
f 12//3 11//3 9//3 10//3
f 10//4 9//4 2//4 1//4
